<?xml version="1.0"?><svg width="640" height="480" xmlns="http://www.w3.org/2000/svg">
 <metadata id="metadata2270">image/svg+xml</metadata>
 <g>
  <title>Layer 1</title>
  <path d="m295.574219,365.673492c-0.350189,-0.56662 -0.35083,-2.55423 -0.001404,-4.416901c0.462158,-2.46344 0.035278,-4.562866 -1.565948,-7.701538c-2.119446,-4.154419 -2.174561,-4.992615 -1.482025,-22.539093c0.714569,-18.104462 0.704834,-18.231934 -1.481812,-19.402191l-2.201111,-1.177979l0.206604,-31.663269c0.113617,-17.414825 0.156921,-32.844482 0.096283,-34.288116c-0.069305,-1.648956 -1.775299,-4.362518 -4.588684,-7.298843c-2.463104,-2.570724 -6.116638,-7.603531 -8.118958,-11.184006c-3.335449,-5.964355 -3.593048,-6.986938 -3.073425,-12.201157c0.311951,-3.130142 0.818848,-9.291183 1.126495,-13.691193c0.532257,-7.613159 4.115662,-27.404739 5.148865,-28.437943c0.268036,-0.268036 2.37915,-1.206573 4.691376,-2.085632c5.379974,-2.04538 18.700165,-10.802826 19.465759,-12.797897c0.321686,-0.838348 -0.14566,-3.583969 -1.038574,-6.101379c-3.385559,-9.544891 -3.269287,-11.99704 0.865814,-18.261551c4.177643,-6.328957 5.809937,-7.082596 13.488342,-6.227608c7.379822,0.821754 9.76825,1.94854 10.525482,4.965569c0.858612,3.42099 -0.187286,13.430939 -1.545258,14.788895c-0.581665,0.58165 -1.055847,3.330048 -1.053802,6.107544c0.004669,6.299545 2.881256,11.550003 6.327911,11.550003c3.323883,0 7.521118,2.295029 12.084137,6.607574c3.796112,3.587692 3.937683,3.963608 4.631256,12.296631c0.983093,11.811249 4.024933,22.060959 7.177734,24.185776c1.201324,0.809631 1.157288,3.368378 -0.17926,10.410019c-0.626373,3.300003 -1.334534,7.340714 -1.5737,8.97937c-0.239166,1.638657 -1.34317,4.207932 -2.453339,5.709503c-1.110168,1.501572 -2.018494,3.386551 -2.018494,4.188858c0,2.808334 -1.266144,4.708557 -4.121185,6.184937l-2.878815,1.488693l0,13.032791c0,7.167999 0.426758,16.043945 0.948364,19.724304c0.521606,3.680359 1.156799,12.487427 1.41156,19.571228c0.445068,12.374725 0.374725,12.96286 -1.793854,15c-2.929321,2.751831 -4.036713,9.948181 -3.681061,23.921509c0.187775,7.377625 -0.110596,11.265717 -0.941406,12.266785c-0.668976,0.806061 -1.216309,3.324188 -1.216309,5.595825c0,3.620911 0.510101,4.554016 4.136353,7.566162c6.78772,5.638245 5.962128,6.27002 -8.193359,6.27002l-12.329681,0l1.005951,-5.549896c0.768372,-4.239227 0.672943,-6.778046 -0.404175,-10.75c-0.928497,-3.424042 -1.415649,-10.561951 -1.426239,-20.899261c-0.010468,-10.181519 -0.407623,-16.090942 -1.130005,-16.813843c-0.744049,-0.744629 -2.238098,-0.824219 -4.5,-0.239716l-3.386139,0.874969l-0.788025,12.938904c-0.490265,8.049469 -0.401459,15.186676 0.234985,18.887299c0.821472,4.776581 0.741608,6.37796 -0.405487,8.128632c-0.785675,1.199097 -1.566437,4.59729 -1.734985,7.551575l-0.306488,5.371338l-5.661743,0.297302c-3.142059,0.164978 -5.94516,-0.161255 -6.298523,-0.733002z" id="path2279" fill="#000000"/>
 </g>
</svg>